<?xml version="1.0" encoding="utf-8"?>
<!-- Generator: Adobe Illustrator 22.1.0, SVG Export Plug-In . SVG Version: 6.00 Build 0)  -->
<svg version="1.1" id="Camada_1" xmlns="http://www.w3.org/2000/svg" xmlns:xlink="http://www.w3.org/1999/xlink" x="0px" y="0px"
	 viewBox="0 0 851 310" style="enable-background:new 0 0 851 310;" xml:space="preserve">
<style type="text/css">
	.st0{fill:#FFFFFF;}
</style>
<g>
	<path class="st0" d="M152.5,54.5h2.1l-4,38.3v4.5c0,8.9,2.7,14.5,8.2,16.9l7.2-21.4h1v1c-2,5.4-3.3,16.3-4,32.7
		c0,6,3.4,12.8,10.3,20.4v1h2.1l-1-5.5v-4.5l3.1-13.6l-2.1-6.7l7.2-11.2l-1-10.2c7.8-6.2,17.8-18.9,30.1-38.2l1-1.2h1V59
		c-8.3,16.6-13.5,28.2-15.6,34.9c0,3.4,5.2,9,15.6,16.9h-2.1l-13.5-6.7c-3.5,3-5.2,6.4-5.2,10.2c4.9,6.9,14.6,15.1,29.1,24.7v2.2h-1
		c-5.8-4.5-9.9-6.7-12.4-6.7v1l3.1,16.9h-2.1c-0.7-6-1.7-9-3-9l-3.1,1.2v-1.2l3.1-5.5c0-6.1-3.8-9.1-11.5-9.1
		c-3.4,3.5-5.1,6.9-5.1,10.2v1.2l2.1,3.3v5.7l-2.1,3.3v7.9c1.1,3.7,2.8,5.5,5.1,5.5c2.6,3.5,8.1,8.4,16.6,14.7l1,6.7h21.9v1.2
		l-2.1,4.5l5.1,16.9c-2.9-1.5-5.6-7.9-8.2-19.2h-2.1l-5.2,4.5c0,7.2,10,21.8,30.1,43.9H250l-34.2-32.7c-5.3,0-10.8-4.5-16.6-13.5
		c-6.6,0-12.8-6.4-18.7-19.2l-1-1h-1.9v1l1.9,11.2c-4.8,2.2-7.2,5.6-7.2,10.2l1,10.2l-1,3.3c8.7,9.8,15.3,14.7,19.8,14.7
		c3.4,0,5.8-3,7.2-9h1v7.8h7.2v2.2h-0.9l-14.5,1.2v1l8.2,11.4h-1L176.5,220h-1v10.2l-1-1l-1-3.4h-1L166,228c4.2-3.9,6.3-6.9,6.3-9
		c-3.2-3.8-6.3-5.7-9.3-5.7h-4.2l-10.3,3.4c4.1-3.8,6.1-7.2,6.1-10.2l-5.1-3.3V201l12.4-5.7c-0.7-5.3-1.7-7.9-3.1-7.9
		c-6.7,1-15,5.1-24.9,12.4h-1v-1c0-2.5,5.9-7.4,17.7-14.7c3.4-3.1,5.1-5.3,5.1-6.7l-1-5.7l4.2,3.4c3.5-3.6,5.2-7.7,5.2-12.4
		l-7.3-7.9c-4.9,4.5-8.7,6.7-11.4,6.7v-2.2c2.8,0,4.2-0.7,4.2-2.2l-5.2-10l7.2,6.7h2.1c0.2-3,0.9-4.5,2.1-4.5
		c-3.4-4.1-5.1-9-5.1-14.7c-11.1-9.8-18-14.7-20.8-14.7v-2.2l9.3,1.2c3.5-4.5,5.2-11.6,5.2-21.4c0-5.3-2.4-7.9-7.3-7.9v-2.2l3.1-1
		l-2.1-6.7c4.2,4.1,6.3,7.4,6.3,10C146.1,89.4,148.9,77.8,152.5,54.5z"/>
	<path class="st0" d="M221,116.9h0.9c13.1,9.6,21.5,14.4,25.4,14.4l0.9-6.3c1.2,0,1.8,2.1,1.8,6.3c1,3,3,4.5,6.1,4.5h0.9
		c4.1,0,6.2-2.1,6.2-6.3v-5.4h1.7v5.4l-1.7,8.1h0.8l8.8,5.4l0.9-5.4h1.7c0,3.2,2.6,6.8,7.9,10.8c0,2.7,3.2,4.5,9.7,5.4v1.8
		c-4.1-0.4-6.2-1-6.2-1.8l-3.5,1.8c0,1.7,2.9,6.5,8.8,14.4l0.9,2.6h-0.9l-12.2-9.8v1.8l1.7,5.4v0.9c-1.1,0-3.2-3.9-6.2-11.7h-0.9
		c-2.6,0-7.3,1.5-14,4.5l4.4-5.4v-3.7c0-3.9-1.8-6.3-5.3-7.2l-4.4,0.9l-6.2-0.9l-6.2,9c-2.2,8.9-4.3,14.8-6.2,18
		c1.2,0,1.8,0.9,1.8,2.7l0.8,0.8h0.9l5.3-8h0.9l-5.3,14.3c1,6,2.1,9,3.4,9h2.6V188h1.8c0,2.4,0.6,3.5,1.7,3.5l15-14.3v1.7
		c-5.6,7.1-9.1,12.8-10.5,17.2l3.4,0.8v1.8l-4.4,0.9v3.5c0,1.2,0.9,1.8,2.6,1.8l17.5,0.9l16.7-17.1v0.9c-3.5,4.1-5.3,8-5.3,11.7
		l2.6,3.5l6.2-2.6l-8.8,10.8c0,1.7,5.9,6.8,17.6,15.2l0.9,0.9v0.9h-0.9c-8.9-5.4-14.4-8.1-16.7-8.1H286v0.9l2.6,10.8v5.4h-1.7v-2.6
		l-2.6-9.8l-6.2,3.5v-0.9l4.5-5.4v-1.8c-0.9-3-4.7-4.5-11.4-4.5H265l-5.3-1.8c-6.4,0.9-9.6,2.7-9.6,5.4v3.7c-0.8,0-1.9-3-3.5-9
		l-4.5-3.5h-2.6l-2.6,3.5c1.8,4,2.6,8.2,2.6,12.6h-1.7v-2.6l-2.6-9h-0.9l-7.9,9v6.3h-1.7c0-2.4-0.6-3.7-1.7-3.7
		c-3.9,4.9-9.5,10.3-16.7,16.3l-0.9-0.9v-0.9c13.4-13.4,20.1-20.9,20.3-22.4l-2.6-0.9l-9.7,2.6c0-1.9,5.6-4,16.7-6.3l4.4-11.7v-1.7
		l-7-3.7v-0.9c2.9-2.9,4.4-6.8,4.4-11.7c-0.5-2-1.7-3.2-3.4-3.5l-4.5,0.9v-0.9c5.6-16,10.6-28.6,15-37.8l-0.9-0.9H236l-4.5,0.9V143
		c2.4,0,3.5-0.9,3.5-2.6l-0.9-3.7l4.5,4.6h0.8l0.9-0.9h0.9C241.3,135.6,234.5,127.7,221,116.9z M239.7,148.5h1.4v0.7h-1.4V148.5z
		 M287.4,190.5l1.4,1.4v0.7h-1.4V190.5z"/>
	<path class="st0" d="M324.9,131.7h1.1c0.4,16,2,24,4.8,24l4.8-2.6v0.5c-0.7,1.8-3,3.2-6.9,4.3v1.1l2.7,0.5h2.1
		c0-1.4,0.9-2.7,2.6-3.8v2.2l2.6-1.6v1.1l-1.6,2.1l1.6,0.5v1.1l-2.6-0.5l-1.1,1.1v0.5c2.5,1,3.7,1.9,3.7,2.7v0.5
		c-1.3-1.1-2.5-1.7-3.7-1.7h-2.1l-1.6,1.7l1.1,1.1v0.5l-0.5,0.5l0.5,1.6l-2.7,5.4l1.1,1.1l-0.5,0.5c1.4,0,2.4,1.8,3.2,5.4h1.1
		l0.5-2.7h1.1v3.2c0,1.5-0.7,2.7-2.1,3.7l-0.5,4.3l3.2,2.1c2.5-1.2,3.8-2.6,3.8-4.3h1.1l-2.7,6.4c3.2,2,5.7,4.1,7.5,6.4h-1.1
		c-3.9-2.9-7.1-4.3-9.6-4.3h-1.1L334,200v2.6c0.9,4.8,3.9,10.1,9.1,16v0.5c-2.2-2.1-3.8-3.2-4.8-3.2v0.5l0.5,2.6l-0.5,11.8
		c4.3,3.5,6.4,6,6.4,7.5l-6.9-5.4l-0.5,8v1.1l-1.1,1.1h-0.5v-7.5c0-8.2-2.3-12.2-6.9-12.2c-2.5,0-3.7,1.4-3.7,4.2h-1.1v-3.2
		l-9.1,3.2c3.1-2.7,7.4-5.7,12.8-9.1l3.2-7.5c-3.7-5-6-7.5-6.9-7.5v-1.1h0.5l3.7,2.2h0.5c0.9-2.5,1.6-3.8,2.1-3.8l-2.6-10.1
		c-2.8,0.7-4.2,1.4-4.2,2.1l0.5,3.2h-0.5l-0.5-0.5h-0.6c0,1.5-0.5,2.2-1.6,2.2v-0.5l1.1-3.2l-0.5-1.6c-3,1.4-5.1,2.8-6.3,4.3
		c1.3,0,2.2,1.6,2.6,4.8v1.6c-1.1,1.3-1.6,3.4-1.6,6.4l4.2,4.8h-0.5l-6.4-4.3c-1.5,0.5-2.5,1.4-3.2,2.7v1.1l1.1,1.6v1.1l-2.1-1.6
		h-0.5l-7.5,8.5V223l6.4-14.4c-0.8-3.9-2.5-5.9-5.4-5.9h-2.1v-1.1h5.3c-1.4-3.6-3.2-5.4-5.3-5.4v-1.1h0.5c1.3,0,3.2,1.1,5.8,3.2h0.6
		l2.1-2.2v-3.7c0-0.6-2.8-2-8.5-4.3l-1.6,0.6l-3.2-0.6c-3.4,0-6.3,2.1-8.5,6.4l-3.2,2.7v-0.5c3.2-3.8,4.8-6.3,4.8-7.5h-1.1l-9.1,0.5
		v-1.1c3.7,0,5.7-0.9,5.9-2.7l3.7,0.5h1.1l1.1-1.1l-1.1-5.4c0.6,0,1.7,1.4,3.2,4.3l3.7,0.5h0.5c2.6,0,4-0.5,4.3-1.6
		c-0.4-1.1-2.3-2.4-5.9-3.8c-0.7-2-2.7-4.8-5.9-8.5H287v-1.1l2.6-0.5l-1.1-2.1l0.5-0.5h0.5l4.3,6.9h0.5l3.2-2.7v0.5
		c-1.4,1.5-2.1,2.9-2.1,4.3c0,2.5,2.5,3.7,7.5,3.7c0,0.6,1.2,1.3,3.7,2.2v0.5c3.7,0,6.2-2,7.5-5.9c0.1-1.4,0.5-2.1,1.1-2.1l-0.6-0.5
		v-1.1c1.8,0,2.7-0.9,2.7-2.7l-1.1-4.8l-3.8,1.6h-0.5v-0.5c0-0.9,3.4-2.7,10.1-5.4l-1.6-4.2v-0.5c1.8-2.1,2.7-3.8,2.7-5.4
		c-3.9-2.5-5.9-5-5.9-7.5h1.1c0.3,1.8,0.8,2.6,1.6,2.6h0.5c0-1.1,0.4-1.6,1.1-1.6v1.6l-0.5,0.5c0.3,1.1,1,1.8,2.2,2.2l1.1-3.2v-4.8
		L324.9,131.7z M299,190.7h0.8v0.9L299,190.7z M323.8,169.1c0,1.9-1.3,4.5-3.8,8v1.6l1.1,1.6v0.6c-0.7,0-1.1,0.9-1.1,2.6l-0.5,0.5
		l6.9,0.5v-3.2l-2.6-5.9h0.5c1.5,0,2.3-1.1,2.6-3.2h0.5C327.5,171,326.3,169.9,323.8,169.1z M325.7,220h0.9v0.5h-0.9V220z
		 M329.1,205.6h0.5v0.9h-0.5V205.6z"/>
	<path class="st0" d="M389.7,78.8l6.6,1.9l2.8-0.9v5.5l0.9,0.9v0.9l8.6-2.8v1.9l-21,8.2v0.9l14.4,1.9v1.8c-3.9,0-5.8,1.5-5.8,4.6
		l5.8,9.3v0.8l-4.9-3.6l-4.7,4.6V113l3.8-5.5l-1.9-5.5v-2.8L381,98.3c-3.3,0-8.1,3.4-14.4,10.1l5.8,0.8v1.9h-9.6v5.5l3.8,1.9
		l5.8-0.9l1.9,1.8l-1.9,11.1h0.9l4.7-0.9l1.1,0.9l0.9-4.6v-2.7l4.7,0.9l2.8-0.9v1.8l-5.7,1.9v12.8c5,7.4,8.5,11.1,10.5,11.1l2.8-0.8
		l-5.7-8.4v-1.9c4,4.3,7.4,7.1,10.4,8.4l1.1-0.9v-4.6l-1.1-0.9v-0.9c6.4-2,9.6-5.9,9.6-11.9c5.8-9.6,12.1-14.8,19.1-15.6l11.5-8.4
		l0.9-3.6v-1.9h-9.6v-1.8h7.7c1.3,0,1.9-0.9,1.9-2.8h1.9v7.4h0.9c11.6-10.5,19.6-16.7,23.9-18.5v0.9l-10.5,10.1l1.1,0.9h6.6v1.9
		c-3.1,0-4.7,0.6-4.7,1.8v1.9h-1.9l-1.1-3.6h-2.8l-22,19.3l-2.8,6.5l2.8,2.7l-5.7,12.9v2.7c0,2,1.6,5,4.7,9.2l-0.9,12h0.9l2.8,0.9
		c2.1-0.1,5.6-3.8,10.5-11.1l0.9,0.9l17.3-18.5v0.9L445,158.9v1.8l6.7,0.9v4.6l1.9,2.8v0.9h-0.9l-2.8-0.9v-5.5l-4.9-0.9
		c-3.5,0-8.6,6.1-15.2,18.3v2.8h0.9l4.9-2.8v0.9l-5.8,6.5l3.8,14.7l-3.8-2.7c-2.2,0-6,8-11.5,23.9l-11.5,26.7h-1.9l13.4-44.2
		l-0.9-0.8v-0.9l1.9-5.5c-3.8-1.3-5.7-3.4-5.7-6.5v-2.7l0.9-0.9v-0.9h-1.9c-1.5,0-2.8,3.1-3.9,9.2l-2.8,1.9h-0.9l0.9-0.9v-0.9H403
		v-1.8c3.1,0,4.7-0.9,4.7-2.8v-2.7c-9.6,5.6-16.6,10.8-21,15.6l-5.7,3.6v-0.9c0-1.3,4.1-5.3,12.4-12l-4.9-1.8v-1.9l8.6,1.9
		c14-12.9,21-22.8,21-29.5l-0.9-8.2v-12h-0.9c0,4.8-2.6,8.5-7.7,11.1c0,2.2-2.5,4.6-7.6,7.4c0,2.8,3.5,4.3,10.4,4.6v1.9
		c-1.9,0-2.8,2.1-2.8,6.3h-1.9v-4.6l-1.9-1.8l-15.2,1.8l0.9-0.9c0-6.7-2.6-10.1-7.7-10.1l-0.9-0.8l-3.9,2.7v1.9l3.9,9.2H381
		c-1.1,0-2.4-1.8-3.9-5.5h-3.8v-0.9l4.7-12c0-2.2-3.8-5.8-11.5-10.9h-0.9v0.8c2,1.6,3,4.1,3,7.4c2.5,0.3,3.8,1.2,3.8,2.7
		c-1.9,0-4.1,4-6.7,12c2,0,3.9,4,5.8,12c8.7,3.7,15.4,5.5,20.1,5.5v1.8l-9.6-0.8l-0.9,0.8v6.5h-1.9v-5.5l-3-2.7l-9.6,1.8v7.4
		l-5.7,10.1l2.8,11.1c-1.3,0-1.9-0.9-1.9-2.8l-0.9-0.8h-1.9c-1.9,6.7-4.1,21.4-6.7,44.1h-1.9l0.9-24.8l-5.7,3.6v-0.9
		c5-4.1,7.6-12.1,7.6-23.9v-10.1l-1.9-1.9h-0.9c-2.5,1.3-3.8,2.8-3.8,4.6l0.9,2.8h-1.9V203l-4.9,3.6h-0.9
		c10.2-14.9,15.2-25.3,15.2-31.2v-1.9l-3.8-0.9l-3.8,3.6c0-2.4-2.6-3.6-7.7-3.6v-1.9l4.9,0.9h4.7c2.5,0,3.8-6.4,3.8-19.3V146l3-7.3
		l-5.8-14.7l-5.7-0.9c-2.6,1-3.9,3.1-3.9,6.3H339l0.9-4.6V124l-4.7-0.9h-0.9l-3,1.8h-0.9V124l0.9-2.8h-0.9l-3.8-0.9v-1.8l13.4,2.7
		c3.3,0,5.3-0.9,5.8-2.7v-2.8c-0.9-5.5-3.8-8.2-8.6-8.2h-6.7l-0.9,3.6h-1.9l-0.9-4.6c3.8-0.8,5.7-1.8,5.7-2.8
		c-8.2-6.1-13.9-9.2-17.1-9.2l-3.8,0.9v-0.9l0.9-2.7c-5.1-2.2-7.7-3.7-7.7-4.6h1.9l16.3,5.5v-2.8l-3-3.6l3.9-1.9
		c2.4,9.8,5.9,14.7,10.5,14.7c6.9,4.3,11.7,6.5,14.3,6.5h2.8l-4.7-7.3v-0.9h1.9c0,1.8,0.6,2.7,1.9,2.7h0.9l0.9-0.9h0.9
		c0,3.1,0.6,4.6,1.9,4.6h3l9.6-6.3v-1.9l-2-2.7v-0.9h0.9l3,0.9l2.8-2.8v0.9l-1.9,5.5v0.9c3.5,0,11.8-3.1,24.8-9.3l0.9-5.4l-6.6-1.9
		V78.8z M317,85.3h1.9v1.9H317V85.3z M319.8,106.5h4.9v1.9h-4.9V106.5z M320.8,82.6h2v1.8L320.8,82.6z M338,131.3h1.9v1.9l-1.9,1.8
		V131.3z M347.6,176.3v0.9l-1.9,1.9h-0.9L347.6,176.3z M364.7,218.7h1.9v1.9h-1.9V218.7z M391.6,174.6h0.9v1.8h-2.8L391.6,174.6z"/>
	<path class="st0" d="M458,141v4.7l1.1,3.2c1.2-0.4,1.9-1.1,2.2-2.2l-0.5-0.5v-1.6c0.7,0,1.1,0.5,1.1,1.6h0.5c0.8,0,1.3-0.9,1.6-2.6
		h1.1c0,2.5-2,4.9-5.9,7.5c0,1.5,0.9,3.3,2.7,5.3v0.5l-1.6,4.2c6.7,2.7,10.1,4.4,10.1,5.3v0.5h-0.5l-3.8-1.6l-1.1,4.7
		c0,1.8,0.9,2.7,2.7,2.7v1.1l-0.6,0.5c0.7,0,1,0.7,1.1,2.1c1.3,3.9,3.7,5.9,7.5,5.9V182c2.5-0.9,3.7-1.6,3.7-2.2
		c5,0,7.5-1.2,7.5-3.7c0-1.4-0.7-2.8-2.1-4.3v-0.5l3.2,2.7h0.5l4.3-6.9h0.5l0.5,0.5l-1.1,2.1l2.6,0.5v1.1h-2.6
		c-3.2,3.7-5.2,6.6-5.9,8.5c-3.6,1.4-5.5,2.7-5.9,3.8c0.3,1.1,1.7,1.6,4.3,1.6h0.5l3.7-0.5c1.6-2.9,2.6-4.3,3.2-4.3l-1.1,5.3
		l1.1,1.1h1.1l3.7-0.5c0.2,1.8,2.2,2.7,5.9,2.7v1.1l-9-0.5h-1.1c0,1.2,1.6,3.6,4.7,7.5v0.5l-3.2-2.7c-2.3-4.3-5.1-6.4-8.5-6.4
		l-3.2,0.6l-1.6-0.6c-5.7,2.3-8.5,3.7-8.5,4.3v3.7l2.1,2.2h0.6c2.6-2.2,4.5-3.2,5.8-3.2h0.5v1.1c-2.1,0-3.9,1.8-5.3,5.3h5.3v1.1
		h-2.1c-2.8,0-4.6,2-5.3,5.9l6.4,14.4v0.5l-7.5-8.5H473l-2.1,1.6v-1.1l1.1-1.6v-1.1c-0.7-1.3-1.7-2.2-3.2-2.7l-6.4,4.3h-0.5l4.2-4.8
		c0-3-0.5-5.1-1.6-6.4v-1.6c0.5-3.2,1.3-4.7,2.6-4.7c-1.3-1.5-3.4-2.9-6.3-4.3l-0.5,1.6l1.1,3.2v0.5c-1.1,0-1.6-0.7-1.6-2.2h-0.6
		l-0.5,0.5H458l0.5-3.2c0-0.8-1.4-1.5-4.2-2.1l-2.6,10.1c0.6,0,1.3,1.3,2.1,3.8h0.5l3.7-2.2h0.5v1.1c-0.9,0-3.1,2.5-6.9,7.5l3.2,7.5
		c5.4,3.3,9.7,6.3,12.8,9l-9.1-3.2v3.2h-1.1c0-2.8-1.2-4.2-3.7-4.2c-4.6,0-6.9,4.1-6.9,12.2v7.5h-0.5l-1.1-1.1V241l-0.5-8l-6.9,5.3
		c0-1.5,2.1-4,6.4-7.5l-0.5-11.8l0.5-2.6V216c-1,0-2.6,1.1-4.8,3.2v-0.5c5.2-5.9,8.2-11.2,9-16v-2.6l-0.5-3.8h-1.1
		c-2.5,0-5.7,1.4-9.6,4.3h-1.1c1.8-2.3,4.2-4.4,7.5-6.4l-2.7-6.4h1.1c0,1.7,1.3,3.1,3.8,4.3l3.2-2.1l-0.5-4.3
		c-1.4-1-2.1-2.2-2.1-3.7v-3.2h1.1l0.5,2.7h1.1c0.8-3.6,1.9-5.3,3.2-5.3l-0.5-0.5l1.1-1.1l-2.7-5.3l0.5-1.6l-0.5-0.5v-0.5l1.1-1.1
		l-1.6-1.7h-2.1c-1.2,0-2.4,0.6-3.7,1.7v-0.5c0-0.9,1.2-1.8,3.7-2.7v-0.5l-1.1-1.1l-2.6,0.5v-1.1l1.6-0.5l-1.6-2.1v-1.1l2.6,1.6
		v-2.2c1.8,1.1,2.6,2.4,2.6,3.8h2.1l2.7-0.5V158c-3.9-1.1-6.2-2.5-6.9-4.3v-0.5l4.8,2.6c2.8,0,4.3-8,4.7-24h1.1L458,141z
		 M482.5,191.7v-0.9h0.8L482.5,191.7z M454.9,172.3h0.5c0.3,2.2,1.2,3.2,2.6,3.2h0.5l-2.6,5.9v3.2l6.9-0.5l-0.5-0.5
		c0-1.8-0.4-2.6-1.1-2.6v-0.6l1.1-1.6v-1.6c-2.5-3.5-3.8-6.1-3.8-8C456.1,170,454.9,171.1,454.9,172.3z M456.8,220.5h-0.9V220h0.9
		V220.5z M453.3,206.5h-0.5v-0.9h0.5V206.5z"/>
	<path class="st0" d="M518.2,85.2v1.6L510,98.8h1.7l6.5-0.9v1.7c-10.9,0-17,5.9-18.3,17.7v1.5c0,1.2,1.5,2.1,4.6,2.5l7.2-4.8
		l-0.9-2.5h1.9c3.8,6.5,10.2,9.7,19.1,9.7h2.9c1.6,0,2.8-1.9,3.6-5.7c-4.3-1.7-6.5-3.1-6.5-4h1.9l4.6,1.7l1.9-1.7v7.3l31.1-21.6v0.6
		l-8.2,9.7c7.4,0.6,11.1,1.4,11.1,2.4l-6.5,3.4v-2.5h-7.3l-1-0.9h-0.9c-11,7.5-16.5,14.5-16.5,21v1.6c4.1,5.3,10.6,8,19.4,8h4.6v1.6
		h-7.5c-4.3,0-7.7-0.5-10.1-1.6c0,2.6-0.6,4.4-1.9,5.6v5.7l4.6,8.8h1l4.6-0.7c-8,5.3-15.4,11.2-22,17.7l6.3,8.7h2.9
		c4.2-2.6,6.3-5.5,6.3-8.7l-0.9-3.4l3.6-0.6v0.6l-1.9,8.1l18.3-9.6c-2,3.1-6.5,6-13.7,8.8c-6.1,4.7-9.7,10.1-10.9,16
		c3.9,7.6,6.9,11.6,9.1,12.1h4.6l1.9-1.5v-12.1h1.9v1.5h0.9l8.2-5.6h1c-6.7,5.6-10.1,9.9-10.1,12.8v3.4l1.7,1.5h8.3v1.6l-3.7,0.9
		l4.6,4.7v0.9h-1.9l1,4l-7.5-10.4l-2.6,0.9l-3.7-0.9l-3.6,0.9v1.6l15.5,18.5v0.7L553,221.1v3.1h-1.9v-3.1c0-2.8-3.4-7.1-10.1-12.9
		l-0.9,5.6v5.6l1.7,9c-1.6,0-3.1-3.5-4.6-10.4l-6.3,2.4l0.9-0.9v-2.2l-2.7-3.4v-0.9h1l4.6,3.4c1.7-0.3,2.6-2.2,2.6-5.6
		c0-6-3-9-9.1-9h-5.5l1.7,7.2h-1.7c-1.4-4.8-2.9-7.2-4.6-7.2h-6.5V200h10.2c3.6,0,5.5-1.1,5.5-3.2l-7.5-20.8l-8.2,0.6l5.6,6.5v1.6
		l-2.9-2.4l-0.9,0.7h-1.9l-0.9-4h-2.7v1.6h-1l1,2.4l-1,8.1l1.9,1.6v3.2c0,1.7-1.2,2.5-3.6,2.5v0.7c0,2.7,3,7.5,9.1,14.4h-0.9
		l-6.5-5.6c0,2.5-1.8,4.9-5.5,7.2v0.9l13.7,11.2h-1.7l-2.7-1.6H510v1.6h-1.9c0-3.3-2.7-6-8.2-8.1v10.4l0.9,13.7l-0.9,0.9h-1
		l-2.7-30.6h-1.9l-0.9,5.6h-1.9v-4.7l-6.5-0.9h-1.7v-1.6h4.6c3.2,0,5.7-1.3,7.3-4l-2.9-2.4h-0.9l-6.5,0.7v-1.6
		c4.1,0,7.5-2.7,10.2-8.1l-2.9-4v-0.7c0-2.8,1-5.3,2.9-7.3v-6.3l-1-4h-0.9c-1.5,0-2.4,2.4-2.7,7.2h-1.9v-9l-4.6-8.7l5.5,4l5.6-9
		l-4.6-6.3c1.2-2.1,1.7-5,1.7-8.8c-2.4-2.2-3.6-5.2-3.6-8.8c-3.1,0-4.6,1.9-4.6,5.6l2.7,12.1h-1.9l-3.6-10.6l-6.5,4.1h-0.9l7.3-8.1
		v-4.7c-8.6-2.7-16.9-4-24.7-4v-1.6h0.9c6.3,0,14.3-1.9,23.9-5.7l4.6,0.9c2,0,4.7-4.3,8.2-12.9v-2.4l-1.9-8c1.2,0,2.7,2.9,4.6,8.7
		h0.9C504.2,99.7,511,92,518.2,85.2z M502.5,130.9c0,5.4,4,10.8,11.9,16.2h-0.9l-5.5-2.5l-2.7,8.8v4.1c2.4,0,3.6,1.6,3.6,4.8
		l-1.9,1.6l10.2,3.1c4.8-0.8,7.2-1.9,7.2-3.1l-5.5-5.6v-0.9l0.9,0.9h2.9v-1.7h1.7l-0.9,3.2l0.9,2.5h1.9c2.6,0,4.7-1.1,6.5-3.4
		l-1-0.6v-1.7l1-0.7l-1-0.9v-0.7l3.7-4.8l-1.9-8.1c-5.9,0-9.8,3.8-11.8,11.3h-2l2-6.5h-1.1c-2.7-0.9-5.1-2.8-7.2-5.6h0.9
		c2.7,2.2,4.8,3.2,6.3,3.2c1.9-3.1,2.9-6.5,2.9-10.4l-0.9-0.9h-0.9l-1.1,0.9h-0.9l-0.9-0.9h-0.9l-0.9,0.9h-1
		c-4.6-0.4-7.6-1.2-9.2-2.5H502.5z M529.1,221.1h1l-1.9,1.6h-0.9L529.1,221.1z M542.8,229.1h1.1v1.5h-1.1V229.1z M544.8,231.4
		l1.7,1.7v0.7l-1.7-1.6V231.4z"/>
	<path class="st0" d="M603.6,116.5h1.2c0.5,18.1,2.2,27.2,5.4,27.2l5.5-3v0.6c-0.8,2-3.4,3.7-7.9,4.9v1.2l3.1,0.6h2.4
		c0-1.6,1-3,3-4.3v2.5l3-1.8v1.2l-1.8,2.4l1.8,0.6v1.2l-3-0.6l-1.2,1.2v0.6c2.8,1.1,4.2,2.1,4.2,3.1v0.6c-1.4-1.3-2.8-1.9-4.2-1.9
		h-2.4l-1.8,1.9l1.2,1.2v0.6l-0.6,0.6l0.6,1.8l-3.1,6.1l1.2,1.2l-0.6,0.6c1.5,0,2.8,2,3.7,6.1h1.2l0.6-3.1h1.2v3.7
		c0,1.7-0.8,3.1-2.4,4.2l-0.6,4.9l3.6,2.4c2.8-1.3,4.3-2.9,4.3-4.9h1.2l-3.1,7.3c3.6,2.2,6.5,4.6,8.5,7.3h-1.2
		c-4.4-3.2-8-4.9-10.8-4.9h-1.2l-0.6,4.3v3c1,5.4,4.4,11.4,10.2,18.1v0.6c-2.5-2.4-4.3-3.6-5.5-3.6v0.6l0.6,3l-0.6,13.3
		c4.8,3.9,7.3,6.7,7.3,8.5l-7.9-6.1l-0.6,9.1v1.2l-1.2,1.2h-0.6v-8.5c0-9.2-2.6-13.8-7.9-13.8c-2.8,0-4.2,1.6-4.2,4.8h-1.2v-3.6
		l-10.3,3.6c3.5-3.1,8.4-6.5,14.5-10.2l3.6-8.5c-4.2-5.6-6.8-8.5-7.8-8.5v-1.2h0.6l4.2,2.5h0.6c1-2.8,1.8-4.3,2.4-4.3l-3-11.4
		c-3.2,0.7-4.8,1.5-4.8,2.4l0.6,3.6h-0.6l-0.6-0.6h-0.7c0,1.7-0.6,2.5-1.8,2.5v-0.6l1.2-3.7l-0.6-1.8c-3.4,1.6-5.8,3.2-7.2,4.9
		c1.5,0,2.5,1.8,3,5.4v1.8c-1.2,1.4-1.8,3.8-1.8,7.3l4.8,5.5h-0.6l-7.3-4.9c-1.7,0.6-2.8,1.6-3.6,3.1v1.2l1.2,1.8v1.2l-2.4-1.8h-0.6
		l-8.5,9.6v-0.6l7.3-16.3c-0.9-4.4-2.9-6.7-6.1-6.7h-2.4v-1.2h6c-1.6-4-3.6-6.1-6-6.1v-1.2h0.6c1.4,0,3.6,1.2,6.6,3.7h0.7l2.4-2.5
		v-4.2c0-0.6-3.2-2.2-9.6-4.9l-1.8,0.7l-3.7-0.7c-3.9,0-7.1,2.4-9.6,7.3l-3.6,3.1v-0.6c3.6-4.3,5.4-7.1,5.4-8.5h-1.2l-10.2,0.6v-1.2
		c4.2,0,6.4-1,6.7-3.1l4.2,0.6h1.2l1.2-1.2l-1.2-6.1c0.7,0,1.9,1.6,3.7,4.9l4.2,0.6h0.6c3,0,4.6-0.6,4.9-1.8
		c-0.4-1.3-2.6-2.7-6.7-4.3c-0.8-2.2-3-5.4-6.7-9.6h-3V160l3-0.6l-1.2-2.4l0.6-0.6h0.6l4.9,7.9h0.6l3.6-3.1v0.6
		c-1.6,1.7-2.4,3.3-2.4,4.9c0,2.8,2.8,4.2,8.5,4.2c0,0.7,1.4,1.5,4.2,2.5v0.6c4.2,0,7-2.2,8.5-6.7c0.1-1.6,0.5-2.4,1.3-2.4l-0.7-0.6
		v-1.2c2,0,3.1-1,3.1-3.1l-1.2-5.4l-4.3,1.8h-0.6v-0.6c0-1,3.8-3,11.4-6.1l-1.8-4.8v-0.6c2-2.3,3.1-4.4,3.1-6.1
		c-4.4-2.8-6.7-5.7-6.7-8.5h1.2c0.3,2,0.9,3,1.8,3h0.6c0-1.2,0.4-1.8,1.2-1.8v1.8l-0.6,0.6c0.3,1.3,1.1,2.1,2.5,2.5l1.2-3.7v-5.4
		L603.6,116.5z M574.3,183.3h0.9v1L574.3,183.3z M602.4,158.8c0,2.1-1.4,5.1-4.3,9.1v1.8l1.2,1.8v0.7c-0.8,0-1.2,1-1.2,3l-0.6,0.6
		l7.9,0.6v-3.6l-3-6.7h0.6c1.7,0,2.6-1.2,3-3.7h0.6C606.6,160.9,605.2,159.8,602.4,158.8z M604.4,216.4h1v0.5h-1V216.4z
		 M608.4,200.1h0.5v1h-0.5V200.1z"/>
	<path class="st0" d="M706.6,91.1c0-2.6,2.1-6,6.4-10.2l-2.1,6.8l3.2,1.1v2.3c-4.9,0-7.4,2.7-7.4,8c0,9.9,1.8,17.1,5.3,21.7l9.4-1.2
		v2.3c-2.8,0-9.8,4.9-21.1,14.8c0,5.8-1.7,10.7-5.2,14.8c1.2,0,1.9,1.5,2.1,4.5h2.1l7.3-6.8l-5.3,10.2c0,1.5,1.4,2.3,4.2,2.3v2.3
		c-2.7,0-6.6-2.3-11.5-6.8l-7.4,8c0,4.7,1.8,8.9,5.3,12.6l4.2-3.5l-1.1,5.8c0,1.4,1.7,3.7,5.2,6.8c11.9,7.4,17.9,12.3,17.9,14.8v1.1
		H717c-10-7.4-18.4-11.6-25.1-12.6c-1.4,0-2.5,2.7-3.2,8l12.6,5.8v2.3l-5.2,3.3c0,3,2.1,6.5,6.2,10.3l-10.5-3.5h-4.2
		c-3,0-6.2,1.9-9.4,5.8c0,2.1,2.1,5.2,6.4,9.1l-6.4-2.3h-1.1l-1.1,3.5l-1.1,1.1v-10.3H674l-23,18.3h-1.1l8.3-11.5v-1.1l-14.7-1.2
		h-0.9v-2.3h7.3v-7.9h1.1c1.4,6.1,3.8,9.1,7.3,9.1c4.5,0,11.2-4.9,20-14.8l-1.1-3.3l1.1-10.3c0-4.6-2.4-8.1-7.3-10.3l2-11.4v-1.1h-2
		l-1.1,1.1c-6,12.9-12.3,19.4-18.9,19.4c-5.9,9.1-11.5,13.6-16.8,13.6l-34.5,33h-2.1c20.3-22.3,30.5-37.1,30.5-44.4l-5.3-4.5h-2.1
		c-2.6,11.4-5.4,17.9-8.3,19.4l5.2-17.1l-2.1-4.5v-1.2h22.1l1.1-6.8c8.6-6.4,14.2-11.3,16.8-14.8c2.3,0,4-1.9,5.2-5.6v-8l-2.1-3.3
		v-5.8l2.1-3.3v-1.2c0-3.3-1.7-6.8-5.2-10.3c-7.8,0-11.7,3.1-11.7,9.2l3.2,5.6v1.2l-3.2-1.2c-1.3,0-2.3,3-3,9.1h-2.1l3.2-17.1v-1.1
		c-2.5,0-6.7,2.3-12.6,6.8H628v-2.3c14.6-9.7,24.4-18,29.4-25c0-3.8-1.8-7.3-5.3-10.3l-13.6,6.8h-2.1c10.5-8,15.8-13.7,15.8-17.1
		c-2.1-6.8-7.4-18.5-15.8-35.3v-2.3h1.1l1.1,1.2c12.4,19.5,22.6,32.4,30.5,38.6l-1.1,10.3l7.3,11.4l-2.1,6.8l3.2,13.8v4.5l-1.1,5.6
		h2.1v-1.1c7-7.7,10.5-14.5,10.5-20.6c-0.7-16.6-2.1-27.6-4.1-33v-1.1h1.1l7.3,21.7c5.6-2.4,8.3-8.1,8.3-17.1v-4.5l-4.1-38.8h2.1
		C701.9,79.3,704.7,91.1,706.6,91.1z"/>
</g>
</svg>
